<svg width="280" height="211" viewBox="0 0 280 211" fill="none" xmlns="http://www.w3.org/2000/svg">
<path fill-rule="evenodd" clip-rule="evenodd" d="M95.7031 97.2894L98.2789 123.419L112.302 115.379V140.437C112.302 140.898 112.029 142.484 112.302 142.883C112.533 143.222 114.246 143.232 114.65 143.289C117.294 143.66 119.943 143.992 122.596 144.286C129.588 145.062 137.071 146.173 144.09 145.282C150.191 144.507 156.106 142.326 161.68 139.789C163.638 138.9 165.565 137.945 167.46 136.927C167.862 136.711 169.319 136.201 169.538 135.761C169.716 135.402 169.297 134.14 169.242 133.762L168.535 128.988L165.246 106.765L171.46 113C171.947 113.489 172.871 114.875 173.545 115.092C174.039 115.251 175.262 114.76 175.75 114.665L186.306 112.621C187.126 112.462 188.974 112.468 189.665 111.971C190.037 111.703 190.054 111.157 190.186 110.64L192.76 100.506C192.915 99.8972 193.777 97.9787 193.558 97.3658C193.479 97.146 193.099 96.996 192.866 96.8528L176.933 87.0751L168.205 81.7191C166.987 80.971 165.49 79.6234 164.109 79.2052C163.252 78.9453 162.005 79.1398 161.118 79.1146L155.71 78.9593C155.428 78.9511 154.439 78.7491 154.202 78.9162C154.004 79.0552 154.086 79.2489 154.021 79.5802C153.862 80.3896 153.861 81.2622 153.783 82.0837C153.721 82.743 153.845 83.9519 153.549 84.5484C153.361 84.9297 153.6 84.7778 153.344 84.9621C153.04 85.1816 152.069 85.111 151.707 85.1531L146.408 85.7715C144.308 86.0166 142.184 86.4765 140.074 86.2647C136.876 85.9438 133.427 85.9597 130.286 85.2827C129.47 85.1066 129.176 84.6445 128.546 84.0129C127.317 82.7799 126.101 81.5325 124.858 80.3127C124.249 79.7149 124.51 79.8162 123.882 80.0429C123.096 80.327 122.298 81.0127 121.586 81.4485L113.401 86.4575L96.7455 96.6515L95.7031 97.2894Z" fill="#60B2F3"/>
<path fill-rule="evenodd" clip-rule="evenodd" d="M255.012 98.3722C251.578 111.469 244.673 125.75 230.761 129.925C227.379 130.94 224.088 131.706 220.575 131.319C220.241 131.282 219.961 131.33 219.643 131.336C219.073 131.347 219.565 131.552 218.926 131.354C218.428 131.199 217.962 130.813 217.442 130.642C216.062 130.188 214.59 130.1 213.187 129.734C209.74 128.833 206.187 127.72 202.847 126.477C201.274 125.892 199.828 125.078 198.349 124.294C196.845 123.497 195.251 123.003 193.73 122.272C192.529 121.695 190.469 120.942 189.625 119.859C188.724 118.703 189.97 116.244 190.326 115.016C191.538 110.837 192.981 106.72 193.892 102.458C197.036 106.12 201.401 108.387 205.919 109.85C208.371 110.643 210.893 111.217 213.443 111.576C215.758 111.902 218.255 112.297 220.576 111.834C222.328 111.484 224.527 110.675 225.778 109.332C226.225 108.852 226.76 107.973 226.51 107.276C226.193 106.392 225.267 106.808 224.766 106.148C224.33 105.573 224.399 104.229 224.259 103.528C224.013 102.289 223.676 101.084 223.263 99.8917C222.463 97.576 221.465 95.255 221.226 92.7908C221.019 90.6531 221.503 88.6313 222.565 86.7762C223.066 85.8993 224.326 83.5134 225.555 83.6126C226.905 83.7214 225.085 89.4382 225.025 90.6044C224.789 95.2272 225.407 100.153 227.767 104.205C228.671 105.756 229.979 107.563 231.909 107.755C233.953 107.958 235.602 106.342 236.575 104.707C238.95 100.718 237.753 95.2432 236.55 91.0619C235.075 85.9317 231.225 82.3958 228.791 77.7884C232.425 78.1555 234.371 80.4753 236.236 83.4186C238.29 86.6589 239.889 90.5492 240.677 94.3195C241.075 96.2245 240.8 98.1373 240.803 100.061C240.804 100.7 240.804 103.058 241.841 102.965C242.949 102.866 243.329 100.207 243.492 99.3953C243.865 97.5348 244.27 95.6739 244.594 93.8043C245.168 90.4962 245.424 87.1081 246.111 83.8231C246.227 83.2675 246.459 81.7268 247.286 82.1427C247.924 82.4631 247.822 84.8462 247.845 85.4001C247.903 86.765 247.983 88.1299 247.994 89.4964C248.01 91.5212 247.608 93.6175 247.805 95.6303C247.934 96.9454 248.636 98.3985 249.508 96.6248C250.371 94.8659 250.547 92.6724 251.029 90.7808C251.535 88.7945 252.057 86.7795 253.13 85.0154C253.428 84.5261 253.748 83.7491 254.41 83.9797C254.891 84.147 255.246 85.2921 255.395 85.6962C256.065 87.523 255.952 89.5536 255.909 91.466C255.857 93.8093 255.607 96.1003 255.012 98.3722ZM188.061 101.771C187.878 101.711 187.098 101.637 186.905 101.62C186.678 101.6 186.935 101.181 186.387 101.3C186.493 101.564 186.681 101.74 186.951 101.828C186.127 102.108 185.518 101.416 184.955 101.327C184.416 101.242 184.393 101.327 183.86 101.899C183.283 101.193 183.392 101.633 182.917 101.634C182.745 101.634 182.737 101.896 182.457 101.864C182.211 101.837 182.186 101.463 182.041 101.419C181.254 101.18 180.444 102.384 179.552 101.34C179.336 102.426 176.859 101.065 175.905 101.256C174.906 101.456 175.337 101.816 174.53 101.201C173.76 100.615 173.975 101.004 173.08 101.484C173.1 101.472 172.574 101.829 172.623 101.835C172.004 101.762 172.039 101.119 171.254 101.153C170.424 101.189 170.069 101.843 169.309 101.038C169.144 101.641 169.11 101.381 168.72 101.533C168.506 101.584 168.319 101.528 168.158 101.364C168.109 101.529 168.002 101.631 167.837 101.668C167.413 101.707 166.616 101.766 166.231 101.561C165.653 101.253 166.118 101.134 165.717 100.788C165.537 101.743 165.143 101.54 164.313 101.629C163.679 101.698 163.539 101.502 162.934 101.407C162.338 101.314 161.568 101.546 160.986 101.645C160.747 101.686 160.425 101.854 160.18 101.795C159.96 101.742 159.866 101.57 159.735 101.525C159.575 101.471 159.609 101.331 159.333 101.263C159.143 101.216 158.802 101.396 158.612 101.427C157.256 101.648 155.954 101.65 154.661 101.114C155.298 102.239 153.173 101.632 152.794 101.166C152.32 101.912 151.747 101.385 150.792 101.443C149.873 101.5 148.49 101.783 148.118 100.632C148.045 100.866 147.523 101.544 147.315 101.648C146.713 101.948 146.641 101.504 146.08 101.323C145.318 101.077 145.477 101.545 145.004 101.639C144.205 101.8 143.774 101.235 143.069 100.935C143.039 101.402 143.024 101.689 142.622 101.979C142.266 100.678 140.997 102.086 141.215 100.347C140.731 100.663 140.052 100.906 139.914 101.545C140.722 101.321 140.001 101.852 139.967 101.869C139.86 101.925 139.499 101.417 139.416 101.345L139.347 102.065C139.025 101.903 138.723 101.614 138.462 101.469C138.227 101.338 138.564 101.066 138.166 101.048C137.957 101.037 137.738 101.493 137.518 101.532C137.182 101.592 137.343 101.107 137.203 101.123C136.988 101.148 136.639 101.463 136.477 101.457C135.945 101.437 136.305 101.189 135.899 101.074C135.174 100.871 135.221 101.347 134.7 101.519C133.507 101.912 133.627 100.102 132.414 101.309C132.124 101.598 131.937 102.044 131.539 102.019C130.716 101.967 131.005 100.987 131.172 100.507C131.345 100.592 128.164 102.234 128.189 102.17C128.209 101.776 128.71 101.473 128.263 101.123C127.897 101.911 127.512 101.925 126.669 102.072C126.259 102.143 126.179 102.238 125.74 102.067C125.461 101.958 125.273 101.511 124.995 101.486C125.033 101.489 124.523 101.879 124.445 101.914C123.985 102.123 123.694 101.886 123.246 101.972C122.865 102.045 122.715 102.371 122.336 102.282C121.83 102.163 122.127 101.555 121.43 101.725C121.192 101.783 121.049 102.244 120.674 102.339C120.089 102.488 119.372 102.21 118.754 102.355C118.264 102.47 117.9 102.519 117.471 102.543C117.124 102.562 117.267 102.291 116.629 102.611L116.358 101.926L115.4 102.791C115.34 102.533 115.301 102.27 115.285 102.006C114.809 102.485 114.209 102.567 113.569 102.61C112.876 102.657 112.359 102.808 111.685 102.936C111.471 102.976 110.922 103.04 110.747 102.965C110.773 102.976 110.419 102.828 110.525 102.856C110.479 102.762 110.437 102.667 110.397 102.57C110.338 102.299 110.144 102.287 109.817 102.534C109.648 102.508 109.32 102.285 109.151 102.34C108.716 102.481 108.775 102.82 108.342 102.771C108.06 102.738 107.917 102.321 107.624 102.292C107.175 102.249 106.787 102.753 106.383 102.863C107.611 102.528 104.791 102.788 105.668 102.811C105.093 102.796 104.496 102.767 103.964 103.026C103.671 102.825 104.027 102.419 103.731 102.252C103.462 102.101 103.441 102.501 103.409 102.509C103.579 102.461 103.494 102.801 103.325 102.862C102.796 103.05 102.372 102.571 102.345 102.096C101.895 102.776 101.769 102.502 101.108 102.544C100.455 102.586 99.893 102.929 99.2406 102.923C97.9502 102.911 97.075 102.46 96.644 101.303C98.0189 101.471 99.403 100.583 100.747 100.792C101.189 100.86 101.465 101.194 101.852 101.135C102.329 101.062 102.662 100.539 103.274 100.483C104.623 100.359 105.952 100.479 107.311 100.272C108.933 100.023 110.626 99.8764 112.264 99.9972C113.529 100.091 114.554 99.6044 115.837 99.511C117.497 99.3895 119.171 99.3681 120.833 99.2805C122.541 99.1906 124.379 98.9164 126.082 99.0043C126.614 99.0318 127.072 99.084 127.599 99.0521C127.822 99.0384 128.034 98.8862 128.268 98.9093C128.573 98.9387 128.704 99.2524 129.02 99.2414C129.558 99.223 130.133 98.778 130.772 98.7659C131.823 98.7458 132.869 98.7483 133.922 98.6881C134.85 98.6351 135.843 98.4175 136.767 98.4293C137.418 98.4375 137.579 98.9953 137.959 99.0527C138.641 99.156 142.093 97.182 142.392 98.9538C144.189 97.7177 146.599 98.7642 148.6 98.5321C151.17 98.2337 153.787 98.4996 156.375 98.3933C159.008 98.2853 161.717 98.3853 164.339 98.6351C165.426 98.7381 166.475 98.8351 167.564 98.7725C168.05 98.7444 168.612 98.62 169.097 98.7323C169.215 98.7598 170.115 99.3914 170.003 99.4096C170.496 98.9659 170.163 98.9008 171.028 98.878C171.695 98.8604 172.326 99.0052 172.989 99.0447C174.18 99.1153 175.38 98.9497 176.568 98.9862C177.56 99.0164 178.53 99.1637 179.527 99.1708C180.602 99.1788 181.871 99.2093 182.649 100.08L182.403 99.2598C183.603 99.3541 184.788 99.7846 186.001 99.5832C185.694 99.8786 185.383 100.12 185.266 100.553C185.92 100.47 186.363 100.011 187.051 100.007C187.63 100.004 187.75 100.295 188.361 99.9184L188.586 101.303C189.432 101.103 188.877 100.469 188.939 99.8981C189.626 100.105 190.208 99.8673 189.937 100.861C189.728 101.627 188.777 102.004 188.061 101.771V101.771ZM186.872 110.303C186.577 111.136 184.026 110.66 183.423 110.572C182.644 110.459 181.753 110.279 181.035 110.19C180.949 110.075 180.844 109.975 180.725 109.896C180.635 110.022 180.521 110.112 180.383 110.165C180.053 110.237 180.052 110.579 179.619 110.503C179.599 111.009 179.948 110.722 180.216 110.905C179.541 111.36 179.85 110.837 179.471 110.845C179.377 110.711 179.247 110.659 179.079 110.687C178.866 110.743 178.669 110.835 178.489 110.963C178.32 111.142 178.176 111.151 178.055 110.991C177.941 110.875 177.793 110.799 177.633 110.775C176.968 110.884 176.782 111.18 176.034 111.132C174.963 111.062 173.806 111.346 172.752 111.196C172.1 111.104 171.009 110.074 170.713 111.078C170.262 110.333 169.543 109.827 169.111 109.066C171.123 108.949 173.135 108.81 175.15 108.737C176.913 108.673 178.843 108.872 180.491 108.789C182.035 108.711 183.67 108.539 185.246 108.398C186.917 108.248 187.47 108.616 186.872 110.303ZM134.365 110.426C135.096 110.629 135.792 110.169 136.501 110.314C136.735 110.362 137.22 110.791 137.327 110.799C137.522 110.815 138.096 110.394 138.342 110.338C139.899 109.982 141.784 110.02 143.341 110.238C144.166 110.354 144.292 109.975 145.012 109.791C145.76 109.599 146.824 109.747 147.612 109.694C149.465 109.569 151.318 109.658 153.159 109.522C155.049 109.382 156.93 109.306 158.821 109.208C160.109 109.142 163.204 108.403 164.272 109.364C165.152 110.157 164.018 111.532 163.137 111.846C162.479 112.08 162.163 111.586 161.675 111.634C161.118 111.687 161.312 112.348 160.815 111.735C160.507 112.345 158.572 112.085 158.017 112.125C156.809 112.213 155.786 112.456 154.964 111.324L155.131 112.304C154.04 111.718 152.87 111.905 151.922 112.11C151.453 112.211 150.014 112.909 149.506 112.608C149.157 112.401 149.773 112.046 149.183 111.87C148.874 111.777 148.34 112.293 147.963 112.267C146.918 112.194 147.214 111.488 146.188 112.387C145.84 112.085 145.724 111.571 145.77 111.131C145.024 111.77 145.086 112.835 143.753 112.64C143.257 112.567 143.166 112.058 142.906 111.964C142.355 111.764 142.292 112.124 141.814 112.409C141.634 112.516 141.413 112.689 141.201 112.711C140.765 112.755 140.695 112.553 140.635 112.559C140.345 112.592 139.979 112.74 139.635 112.634C139.326 112.539 139.235 111.99 138.69 112.119C138.169 112.242 138.164 112.597 138.259 113.13C137.745 113.076 137.434 112.789 137.049 112.477C136.661 113.387 135.843 112.634 135.391 113.401C134.802 112.695 134.424 112.889 133.693 112.199C133.729 112.487 133.765 112.775 133.801 113.063C133.231 112.953 132.977 112.548 132.49 113.083C132.018 112.199 130.586 113.459 129.851 112.605C129.523 113.686 127.354 113.428 126.438 113.446C125.626 113.463 125.025 113.396 124.232 113.586C123.531 113.753 122.559 113.926 121.9 113.85C121.469 113.8 120.999 113.72 120.462 113.779C119.688 113.863 119.02 114.266 118.219 114.075C117.012 113.789 116.272 112.196 117.616 111.497C118.536 111.018 120.193 111.195 121.205 111.107C122.883 110.96 124.763 110.654 126.443 110.793C127.753 110.902 128.947 110.588 130.284 110.455C131.291 110.355 132.94 110.176 133.597 111.178C133.849 110.885 133.823 110.275 134.365 110.426ZM116.001 124.145C115.82 123.244 123.49 122.748 124.251 122.689C125.85 122.565 127.452 122.477 129.054 122.436C130.371 122.402 131.6 122.655 132.917 122.452C134.148 122.262 135.633 121.873 136.703 122.748C136.861 121.552 141.477 122.135 142.356 122.138C146.179 122.152 149.838 122.161 153.536 121.923C155.65 121.787 157.894 121.604 160.008 121.71C160.961 121.758 161.729 122.014 162.677 121.792C163.296 121.648 163.962 121.347 164.554 121.772C165.246 122.27 165.542 123.959 165.065 124.664C164.718 125.178 164.41 125.121 163.855 125.033C163.002 124.896 162.369 124.698 161.499 125.046C161.64 124.989 160.916 125.152 160.976 125.147C159.991 125.221 158.639 125.913 157.791 125.116C158.131 125.175 158.625 124.565 158.196 124.515C157.874 124.478 157.67 124.824 157.419 124.941C156.559 125.338 156.119 125.214 155.606 124.38C154.57 125.28 154.459 125.031 154.004 123.923C153.654 124.193 153.579 124.834 153.304 125.044C153.263 125.075 153.432 125.464 153.234 125.448C153.049 125.433 152.989 125.13 152.847 125.105C152.756 125.09 152.709 124.824 152.622 124.807C152.528 124.79 152.432 124.96 152.325 124.955C152.041 124.941 151.227 125.55 151.519 124.696C151.088 125.247 150.902 124.896 150.747 124.394L149.254 125.535C149.022 124.888 148.624 125.064 148.123 125.29C148.274 124.841 148.179 124.416 147.8 124.728C147.581 124.909 147.434 125.483 147.209 125.727C146.301 124.802 145.971 125.056 144.715 125.176C144.236 125.222 143.641 125.311 143.213 125.02C142.836 124.764 142.623 123.826 141.98 124.584C142.123 124.416 141.898 125.71 141.859 125.916C141.575 125.723 141.334 125.487 141.136 125.207C140.765 125.943 139.793 125.282 138.996 125.433C137.742 125.67 136.448 126.069 135.34 125.131C135.262 125.434 134.355 125.82 134.353 125.832C134.407 125.295 134.744 125.484 134.056 125.382C133.93 125.363 133.786 125.592 133.667 125.617C133.256 125.702 132.778 125.621 132.365 125.61C130.646 125.56 129.073 125.943 127.376 126.081C126.804 126.128 126.126 126.219 125.588 126.003C125.035 125.779 125.05 125.526 124.491 125.67C124.668 125.624 124.141 126.18 124.169 126.16C124.094 126.215 123.78 125.943 123.669 125.963L123.571 126.319L123.166 126.269C122.797 126.319 122.464 125.944 122.118 125.931C122.181 125.933 121.182 126.307 121.228 126.33C120.53 125.98 120.73 126.082 119.845 126.294C119.008 126.496 118.176 126.449 117.317 126.574C114.821 126.938 116.308 125.681 116.001 124.145ZM113.796 136.687C113.326 136.019 114.575 135.787 114.974 135.729C115.63 135.631 116.501 135.824 116.938 135.72C117.604 135.56 118.247 135.181 118.996 135.078C119.943 134.948 120.896 134.927 121.846 134.845C122.162 134.818 122.554 134.708 122.862 134.727C123.321 134.755 123.511 134.998 123.881 135C124.512 135.003 125.289 134.603 125.936 134.53C126.763 134.436 127.599 134.391 128.431 134.35C130.183 134.262 131.916 134.299 133.667 134.297C134.466 134.296 136.593 133.463 136.991 134.397C137.545 133.689 138.965 133.786 139.757 133.765C141.151 133.729 142.531 133.594 143.925 133.529C145.118 133.473 146.451 133.73 147.622 133.55C148.268 133.451 148.482 133.243 149.214 133.337C149.758 133.406 150.587 133.117 151.054 133.245C151.03 133.239 151.637 133.616 151.448 133.628C151.656 133.615 151.644 133.761 151.874 133.696C152.176 133.611 152.037 133.229 152.663 133.093C153.639 132.882 154.941 133.127 155.955 133.072C156.939 133.02 157.921 132.997 158.907 133.002C159.36 133.004 159.921 132.895 160.362 132.984C160.578 133.027 161.037 133.311 161.22 133.282C161.739 133.201 162.004 132.839 162.705 132.861C163.501 132.886 164.217 132.875 165.008 132.814C165.773 132.756 165.896 132.646 166.276 133.286C166.652 133.921 166.756 134.748 166.064 135.18C166.513 135.15 167.066 135.755 166.537 136.09C166.209 136.297 165.552 135.83 165.16 135.863C164.677 135.905 164.298 136.162 163.772 136.178C163.219 136.195 162.658 136.334 162.113 136.345C161.545 136.356 161.116 136.101 160.577 136.21C160.103 136.306 160.053 136.696 159.482 136.353C159.199 136.183 159.151 135.551 158.764 135.546C158.246 135.537 158.452 136.21 158.154 136.522C158.074 135.56 157.335 137.152 157.041 135.984C156.77 136.372 155.767 136.915 155.281 136.603C154.838 136.319 154.985 135.676 154.8 135.213C154.493 136.046 153.669 136.909 153.743 135.394C153.343 135.889 152.261 135.811 152.532 136.677C152.206 136.671 152.129 136.203 151.854 136.168C151.617 136.137 151.429 136.32 151.393 136.317C151.522 136.328 151.004 136.501 150.996 136.503C151.347 136.432 149.985 136.31 150.217 136.312C149.901 136.309 149.514 136.569 149.144 136.568C148.807 136.567 148.472 136.434 148.14 136.396C147.278 136.297 147.458 136.487 146.917 136.759C146.716 136.86 146.666 137.03 146.381 137.009C146.171 136.993 146.093 136.718 146.069 136.716C145.774 136.686 145.992 136.586 145.533 136.632L145.376 136.905C145.21 137.118 144.995 137.171 144.732 137.065C144.053 137.211 141.803 137.845 142.023 136.671L140.988 137.179C140.841 136.233 138.967 137.488 138.549 137.551C138.012 137.632 137.962 137.425 137.455 137.315C137.363 137.295 137.18 137.598 136.965 137.555C136.408 137.442 136.309 137.387 136.213 136.779C135.816 137.525 135.486 137.191 134.766 137.314C134.607 137.341 134.505 137.656 134.276 137.602C134.111 137.563 134.107 137.26 133.993 137.221C133.891 137.185 133.906 136.946 133.756 136.913C133.583 136.873 132.993 137.359 132.824 137.434C132.443 137.603 131.817 137.882 131.445 137.798C130.985 137.695 131.19 137.352 130.539 137.391C129.514 137.451 129.086 138.328 128.448 136.946C128.16 137.5 128.196 137.65 127.734 137.833C127.392 137.968 126.526 137.827 126.076 137.81C124.154 137.738 122.264 138.397 120.358 138.225C119.52 138.149 118.814 137.98 117.968 138.118C117.08 138.263 116.211 138.476 115.31 138.562C114.851 138.605 113.894 138.737 113.669 138.149C113.471 137.631 114.209 137.277 113.796 136.688V136.687ZM117.565 157.936C115.072 159.611 113.007 161.9 110.718 163.837C108.423 165.78 106.602 167.94 104.538 170.091C102.629 172.08 100.877 173.961 98.5693 175.464C97.1091 176.415 95.807 177.586 94.3075 178.482C93.1842 179.154 91.4826 180.037 92.0306 177.983C92.5922 175.878 93.6291 173.75 94.5298 171.784C95.8095 168.989 97.0996 166.22 98.4845 163.478C99.0052 162.448 99.2966 161.423 100.122 160.602C101.02 159.709 101.649 158.543 102.633 157.699C106.77 154.15 113.006 156.892 117.565 157.935V157.936ZM125.386 159.139C124.255 159.734 122.989 159.882 121.791 160.276C120.769 160.611 119.82 161.208 118.721 161.253C119.721 160.498 120.58 159.473 121.708 158.901C122.976 158.256 124.127 158.725 125.386 159.139ZM175.023 164.103C170.864 162.692 166.991 160.614 162.939 158.942C162.24 158.653 156.77 156.843 156.881 155.982C160.714 155.276 164.662 154.065 168.504 155.386C171.999 156.586 174.842 159.467 177.548 161.878C178.254 162.507 182.62 165.372 182.23 166.284C181.959 166.917 179.855 166.744 179.359 166.614C178.717 166.447 178.347 166.055 177.844 165.625C177.002 164.907 176.071 164.458 175.023 164.103ZM167.344 140.541C167.976 139.957 168.354 139.071 168.958 138.532C169.733 137.839 170.985 138.176 171.832 138.536C174.376 139.616 176.55 141.432 179.078 142.559C181.879 143.807 184.305 145.476 186.831 147.196C189.141 148.768 191.638 150.07 193.996 151.57C196.398 153.099 199.087 154.093 201.523 155.567C204.001 157.068 206.47 158.576 208.852 160.23C213.099 163.179 217.521 166.208 220.663 170.401C222.278 172.557 223.79 175.002 224.975 177.422C226.052 179.623 227.22 182.677 225.824 184.966C224.484 187.164 222.199 188.896 220.265 190.536C219.532 191.157 218.835 191.911 217.886 192.181C216.731 192.508 215.384 192.417 214.196 192.514C207.846 193.031 201.931 192.543 195.673 191.402C189.639 190.302 183.58 189.686 177.499 188.921C174.069 188.49 170.64 187.987 167.257 187.269C165.81 186.962 164.338 186.608 162.923 186.189C161.687 185.824 160.648 185.019 159.377 184.701C153.983 183.347 147.812 182.83 142.473 180.554C147.198 178.58 152.219 177.389 157.062 175.749C162.159 174.024 167.138 172.576 172.51 172.085C175.275 171.833 177.749 171.124 180.408 170.381C182.942 169.674 185.588 169.457 188.191 169.14C189.349 168.999 192.652 169.21 193.036 167.689C193.607 165.426 190.361 165.165 188.978 165.367C187.014 165.655 185.396 166.147 183.894 164.529C182.36 162.877 180.869 161.185 179.307 159.554C176.411 156.529 173.427 153.03 169.333 151.673C164.339 150.017 158.549 151.589 153.566 152.53C148.303 153.525 143.049 154.477 137.884 155.922C135.746 156.521 132.987 157.84 130.768 157.628C128.58 157.419 126.103 157.059 123.989 156.425C123.032 156.139 122.246 155.607 121.39 155.112C120.277 154.467 119.058 154.054 117.877 153.553C115.489 152.54 113.16 151.607 110.584 151.209C108.414 150.874 106.11 150.675 104.007 151.439C101.944 152.19 100.116 153.716 98.6765 155.347C97.113 157.119 95.8207 159.104 94.5394 161.084C93.9241 162.034 93.1733 162.863 92.5359 163.792C92.0011 164.573 91.6888 165.439 91.1228 166.197C89.8559 167.894 88.9957 170.064 88.2282 172.037C87.375 174.228 86.4276 176.835 86.6313 179.219C86.7079 180.12 86.7885 181.314 87.1355 182.15C87.5768 183.213 88.206 183.185 89.113 183.586C90.6716 184.275 91.1086 186.179 93.1222 185.807C95.0111 185.459 96.6492 183.896 98.0274 182.649C99.8236 181.025 101.543 179.312 103.261 177.605C105.025 175.854 106.763 173.911 108.166 171.85C108.718 171.039 109.149 170.123 109.802 169.385C110.633 168.444 111.566 168.331 112.695 167.956C122.566 164.679 132.484 161.518 142.663 159.355C145.102 158.836 147.561 158.168 149.956 157.478C152.497 156.746 153.812 157.519 155.909 158.912C160.29 161.822 165.468 163.872 170.346 165.771C171.883 166.369 174.328 166.407 175.529 167.586C168.411 168.676 161.629 170.774 154.764 172.863C151.379 173.892 147.956 174.785 144.558 175.769C141.159 176.755 137.89 178.031 134.538 179.142C131.202 180.247 127.676 180.698 124.308 181.717C120.87 182.758 117.446 183.474 113.916 184.107C110.353 184.746 106.814 185.483 103.238 186.055C101.6 186.317 99.9633 186.588 98.3443 186.948C96.76 187.301 95.2293 188.146 93.637 188.341C86.5263 189.215 79.555 191.163 72.4719 192.264C67.1833 193.086 57.9824 194.233 54.553 188.901C51.1044 183.54 55.335 177.286 59.1104 173.452C61.4565 171.07 64.0927 168.973 66.8588 167.108C69.8187 165.111 72.6666 162.956 75.6276 160.962C82.3279 156.451 89.5934 152.772 96.7917 149.147C100.247 147.407 103.586 145.541 106.947 143.631C108.615 142.684 109.538 144.213 110.857 145.252C111.894 146.07 113.798 148.085 115.25 147.154C115.305 147.489 115.362 147.824 115.417 148.16C115.842 147.965 116.268 147.771 116.692 147.576C116.978 148.329 116.945 148.796 117.742 149.191C118.232 149.434 119.277 149.726 119.744 149.298L120.03 150.189C120.438 150.158 120.517 148.985 120.594 148.71C121.294 149.737 122.261 150.595 123.491 150.885C123.497 150.818 123.291 149.974 123.3 149.969C123.689 149.73 124.18 150.755 124.386 150.974C125.07 151.701 125.478 151.588 126.233 151.002C126.288 151.061 126.544 151.732 126.581 151.72C126.745 151.668 127.055 151.074 127.089 151.019C127.042 151.801 128.543 151.958 129.073 151.791L128.717 151.104C130.564 150.856 131.289 152.827 133.062 152.727C134.372 152.653 133.321 152.365 134.063 151.802C134.711 151.308 134.826 152.387 134.89 152.352C135.013 152.222 135.111 152.07 135.177 151.904C135.417 152.827 137.326 153.655 137.129 152.137C137.88 152.439 138.413 152.94 139.244 153.046C140.255 153.174 141.334 152.959 142.341 152.875C144.513 152.693 146.561 152.248 148.518 151.249C149.679 150.656 150.914 150.118 152.005 149.403C152.918 148.805 154.65 146.988 155.866 147.77C155.554 146.847 157.02 147.702 157.067 146.514C157.302 146.693 157.538 146.87 157.773 147.049C157.914 146.738 157.875 146.248 158.064 145.977C158.324 145.604 158.45 145.824 158.672 145.614C158.919 145.38 159.136 144.752 159.433 144.574C159.739 144.39 160.099 144.609 160.428 144.448C160.929 144.204 163.086 141.814 162.721 143.862C163.648 143.545 162.933 143.256 163.049 142.635C163.282 141.39 163.848 142.286 164.412 142.394C165.336 142.572 165.317 141.805 165.832 141.247C166.303 140.738 167.187 140.51 166.882 139.626C167.23 139.814 167.304 140.183 167.344 140.541ZM111.668 113.966C110.94 114.78 110.395 114.432 109.586 114.313C109.5 114.022 109.352 113.981 109.143 114.192C108.904 114.33 108.642 114.423 108.369 114.465C107.706 114.629 107.017 114.559 106.368 114.808C106.387 114.59 106.615 114.202 106.469 113.98C105.786 114.454 105.363 114.756 104.525 114.765C103.846 114.772 102.654 114.251 102.09 114.874C102.073 114.631 102.055 114.389 102.038 114.146C101.765 114.283 101.52 114.471 101.318 114.701C101.279 114.342 101.257 114.07 101.021 113.78C100.573 114.707 100.081 114.729 99.2094 114.375C99.3316 114.424 98.3372 113.838 98.3752 114.001C98.0607 112.67 103.024 112.78 103.545 112.727C104.846 112.595 106.147 112.518 107.451 112.398C108.686 112.284 109.609 112.09 110.464 113.126C110.083 111.629 113.69 111.704 111.668 113.966ZM54.7619 90.7575C54.8986 93.02 55.3995 95.4248 54.524 97.6023C53.8202 99.3527 52.4158 101.329 50.9037 102.472C47.8062 104.811 45.1812 101.949 44.75 98.8035C44.3007 95.5231 45.1913 91.5147 48.0028 89.4918C49.6828 88.2829 51.3095 88.367 53.2435 88.7642C53.6977 88.8577 54.4351 88.8219 54.6949 89.2753C54.7559 89.3813 54.7012 90.7553 54.7619 90.7575ZM95.8967 120.902C95.3616 121.173 94.8019 121.332 94.3302 121.701C94.1664 121.829 94.1106 122.122 93.9367 122.229C93.6204 122.426 93.1684 122.296 92.8383 122.458C92.2925 122.726 91.9013 123.109 91.2524 123.356C90.2893 123.723 89.4447 124.226 88.5341 124.703C87.0171 125.498 85.3891 126.18 83.8029 126.827C83.0022 127.154 80.7882 127.79 80.8648 128.968C80.6857 129.017 80.5027 128.623 80.1287 128.655C79.6154 128.697 78.9373 129.294 78.4044 129.441C77.4074 129.715 76.6358 129.739 76.6358 131.016C76.3186 130.799 76.2379 130.269 75.8155 130.199C75.3405 130.12 75.1406 130.635 74.7606 130.795C74.3129 130.984 73.7562 130.803 73.313 131.004C73.1188 131.21 72.9036 131.39 72.6666 131.543C72.4268 131.571 72.1842 131.564 71.9466 131.521C71.0054 131.721 70.1392 132.077 69.1958 132.262C68.2768 132.442 67.6474 132.507 68.0337 133.6C67.0502 133.793 66.8101 132.745 65.7005 133.128C64.3404 133.598 63.0692 133.937 61.6495 134.223C60.9254 134.37 60.1688 134.696 59.4396 134.772C58.9192 134.827 58.4333 134.64 57.9212 134.698C57.3038 134.768 56.8075 135.055 56.1684 135.066C55.5622 135.077 54.9259 134.967 54.3309 134.86C54.4149 135.101 54.5202 135.332 54.6465 135.553C54.235 135.466 54.0449 134.969 53.696 134.895C53.3296 134.819 53.0018 135.198 52.6969 135.114C52.567 135.078 52.6534 134.676 52.4213 134.599C52.2096 134.529 52.1205 134.611 51.9102 134.578C51.8402 134.567 50.9622 134.52 50.8222 134.594C50.5777 134.724 50.8249 134.968 50.7765 135.005C49.9508 135.619 49.9406 135.287 49.5726 134.646C49.032 133.704 48.3801 134.298 47.3977 134.134C46.3025 133.95 45.4399 134.436 44.3622 134.366C43.1999 134.292 41.8338 133.418 40.8059 132.907C38.5867 131.805 36.4227 130.762 34.5587 129.093C30.9151 125.83 27.9511 121.817 26.2035 117.223C24.3256 112.288 23.9698 107.14 24.1205 101.905C24.2113 98.7557 24.4623 95.6086 24.9561 92.4966C25.2963 90.3558 25.3674 86.5515 27.7695 85.5767C28.1824 90.5891 26.8795 95.6967 27.7011 100.676C27.9486 102.176 28.5521 104.175 29.6942 105.286C31.3852 106.931 31.7806 104.554 31.9337 103.241C32.2183 100.802 32.7472 98.3766 33.1218 95.9495C33.4958 93.5233 33.7602 91.0701 34.2803 88.6692C34.4701 87.7939 35.9997 81.3839 37.1224 81.6875C36.8955 86.3506 36.292 90.9336 36.2682 95.614C36.2589 97.4911 36.0916 99.4741 36.3612 101.339C36.5001 102.298 37.3699 105.115 38.8659 104.88C40.2503 104.663 38.7283 102.679 38.599 101.914C38.2567 99.889 38.6931 97.3699 39.0122 95.3602C39.6165 91.5567 40.9642 87.6614 43.167 84.483C45.1402 81.6367 48.1781 78.9277 51.8377 79.4294C53.4018 79.644 54.6213 80.0341 55.4072 81.4688C56.0238 82.5947 58.4522 83.8741 57.0451 85.2838C55.7638 86.5669 53.6916 85.5399 52.2676 85.2338C50.5239 84.8594 48.6555 85.3099 47.197 86.3366C44.695 88.0977 43.2693 91.246 42.8039 94.1989C42.1766 98.1801 43.8534 108.602 50.029 106.266C54.1316 104.714 57.2217 99.1326 56.8772 94.8593C56.7391 93.1488 56.0733 89.9014 58.429 89.4396C61.4466 88.848 61.8729 92.1902 61.5672 94.3621C61.1231 97.5216 59.4612 100.459 57.56 102.957C55.9029 105.134 53.9757 106.496 51.9818 108.294C51.3912 108.826 49.8857 110.023 50.1386 111.013C50.4159 112.098 52.7822 112.406 53.7297 112.585C58.4172 113.467 63.7033 112.655 68.3829 112.04C78.0008 110.774 87.4921 107.658 95.3786 101.927C95.6971 105.473 96.0988 109.007 96.2467 112.565C96.3186 114.292 96.337 116.045 96.5333 117.762C96.6544 118.819 97.0917 120.296 95.8967 120.902ZM69.2284 133.256C68.8505 133.454 69.2587 132.254 69.1537 132.651C69.7178 132.855 69.743 133.056 69.2284 133.256ZM109.126 90.3481C109.725 89.6843 111.363 88.1054 111.882 89.6038C112.076 88.9651 112.101 88.0189 112.848 88.8816C113.145 87.8219 116.423 87.9211 117.236 87.8744C119.836 87.7249 122.447 87.645 125.038 87.3853C130.362 86.8523 135.78 87.1271 141.124 87.1098C142.281 87.1059 143.435 87.043 144.584 87.2114C145.692 87.3743 146.858 87.8309 147.987 87.6642C148.992 87.5158 149.651 87.2375 150.685 87.3565C151.922 87.4991 153.123 87.6004 154.371 87.5955C159.893 87.5754 165.411 87.8002 170.933 87.809C172.01 87.8106 173.299 87.5993 174.309 88.0587C174.683 88.2291 175.092 88.7956 175.378 88.8577C175.705 88.9288 175.51 88.4153 175.949 88.6475C176.536 88.9577 176.081 89.9118 175.694 90.0632C175.926 89.9725 175.274 89.8832 175.34 89.8797C175.03 89.8964 174.766 90.1346 174.435 90.1198C173.929 90.0978 173.505 89.7876 173.098 89.5148C173.091 89.6264 173.315 90.369 173.059 90.4064C172.839 90.4388 172.633 89.7066 172.611 89.5363C171.376 90.6311 170.067 90.0209 168.534 90.1594C167.446 90.258 165.179 90.9866 164.42 89.8462C164.391 90.0835 164.29 90.306 164.13 90.4833C163.913 90.8149 163.726 90.7869 163.568 90.3978C163.514 90.4003 162.986 90.5157 162.975 90.5149C162.603 90.4852 162.122 90.3511 161.743 90.3187C161.158 90.2684 161.266 90.6965 160.8 90.7034C160.545 90.7069 159.896 90.3377 159.452 90.3146C158.683 90.2742 157.898 90.602 157.139 90.5028C156.617 90.4347 156.145 90.0074 155.633 89.991C154.994 89.9695 154.787 90.4588 154.281 89.7717C154.177 89.7434 154.113 90.1476 154.072 90.1547C154.082 90.1528 153.591 90.2261 153.533 90.2487C153.432 90.2874 153.039 90.4685 152.92 90.4701C152.662 90.475 152.521 90.2893 152.248 90.2849C151.795 90.2772 150.349 90.6778 150.39 89.836C148.774 90.4377 147.395 90.2033 145.736 90.3454C144.975 90.411 144.497 90.3086 143.773 90.1682C142.866 89.9923 142.264 90.2132 141.36 90.258C140.491 90.3009 140.217 89.9311 139.483 89.5978C139.194 89.4662 139.003 89.2928 138.648 89.3659C138.446 89.4077 138.59 89.75 138.53 89.7734C138.218 89.8942 138 89.7662 137.573 89.7953C136.784 89.8495 136.47 90.5124 135.659 89.8901L136.467 89.7912C135.692 89.4607 134.668 89.2923 134.856 90.4954C134.194 90.402 134.767 89.9495 134.442 89.7874C134.116 89.6258 133.753 89.8964 133.343 90.0302C132.261 90.3827 131.359 90.2077 130.232 90.1445C128.95 90.0725 125.952 91.1232 125.035 89.7593C125.007 90.0467 124.7 90.8473 124.291 90.8097C124.158 90.7973 124.529 89.9473 124.572 89.8574C124.361 90.3077 123.401 90.3932 122.927 90.6267C122.98 90.3849 123.033 90.1429 123.086 89.9011C122.647 90.3712 122.433 90.0844 121.916 90.2415C121.69 90.3102 121.363 90.7786 121.169 90.8069C120.944 90.5445 120.661 90.4316 120.32 90.4682C120.098 90.4114 119.867 90.4001 119.64 90.4349C118.732 90.5009 117.905 91.0078 117.002 90.663C116.221 90.3635 115.919 89.5942 115.453 90.8182L115.085 90.1654L114.631 90.8737C114.04 90.4847 114.003 90.2594 113.323 90.4022C113.163 90.4662 113 90.4572 112.832 90.3753L112.712 90.7347C112.696 91.0358 112.607 91.1355 112.445 91.033C112.308 90.9837 112.183 90.9076 112.076 90.8091C111.626 90.8438 111.051 90.963 110.568 90.897C110.382 90.872 109.213 90.252 109.126 90.3481ZM122.901 82.248L123.06 82.4933C122.329 82.881 122.157 82.6582 122.082 81.8798C122.439 81.8867 122.5 82.5178 122.901 82.248ZM123.354 81.7911C123.706 81.9471 124.109 82.2535 124.441 81.843C124.664 82.4947 123.006 83.3843 123.354 81.7911ZM125.626 82.079C126.365 82.5807 124.593 82.1774 124.596 82.1779C124.914 81.8826 125.258 81.8496 125.627 82.079H125.626ZM131.981 79.2811C132.235 80.5657 132.934 80.5292 134.061 79.9322C135.706 79.0613 135.984 77.6348 136.099 75.9317C136.209 74.2987 136.408 73.6665 138.084 74.0074C139.254 74.2453 140.243 74.0453 141.422 74.0126C142.681 73.9778 143.124 74.1709 143.225 75.4721C143.327 76.7749 143.558 77.7642 144.499 78.7558C145.456 79.7638 146.731 80.3657 147.974 80.9298C148.614 81.2193 149.214 81.5314 149.921 81.5941C150.195 81.6185 151.622 81.4372 151.652 81.8908C151.674 82.2315 149.698 83.1931 149.489 83.3079C148.573 83.8085 147.659 84.2577 146.658 84.5607C144.356 85.2588 141.915 85.3001 139.53 85.2577C135.685 85.1899 130.371 83.5557 128.072 80.1284L131.981 79.2811ZM131.636 68.1569C131.028 67.6439 130.634 66.8689 130.129 66.2614C129.874 65.9551 129.687 65.8576 129.444 65.7042C129.189 65.5427 129.045 65.7713 128.832 65.3916C128.282 64.4108 129.98 63.0305 128.178 62.653C127.569 62.525 126.102 63.0102 125.924 62.1326C125.672 60.8916 128.029 60.8106 128.584 60.1806C129.687 58.9283 128.938 56.8054 129.61 55.3609C130.246 53.9924 131.887 53.7492 133.183 53.3379C134.988 52.7654 136.815 52.4332 138.648 51.975C139.929 51.6546 142.059 50.3677 143.247 51.5049C141.413 51.914 142.479 52.5563 143.702 52.9187C145.086 53.3297 146.554 53.4901 147.989 53.6044C149.466 53.722 150.971 53.7446 152.43 53.4487C153.78 53.175 155.287 51.9964 156.702 52.2983C155.917 53.6701 153.578 54.4193 152.157 54.7787C151.433 54.9617 150.969 54.9045 151.066 55.8117C151.16 56.6909 151.921 57.5728 152.093 58.4885C152.32 59.7006 152.122 60.8147 151.692 61.9546C151.27 63.0764 151.171 63.2228 151.54 64.2946C152.116 65.9633 150.879 67.8079 149.737 69.0198C145.115 73.9201 136.271 72.0639 131.636 68.1569ZM143.38 38.8702C143.382 38.9012 143.398 38.9202 143.38 38.8702V38.8702ZM144.819 51.2367C144.627 51.3804 143.524 51.6818 143.57 51.2488C143.632 50.668 144.626 50.8779 144.819 51.2367ZM147.334 39.507C147.075 39.313 146.35 39.3927 146.881 38.6575L147.334 39.507ZM129.928 34.8595C130.258 33.9979 130.624 33.1962 130.773 32.2789C130.864 31.7137 130.682 31.0684 131.468 30.9796C130.466 30.5406 130.456 28.8075 130.397 27.9091C130.315 26.672 129.926 25.0153 130.468 23.8639C131.023 22.6811 131.773 22.7006 131.999 24.1092C132.087 24.6609 131.748 24.8395 131.684 25.2236C131.559 25.9835 131.809 25.817 132.297 25.2379C132.499 25.8263 132.576 26.7105 133.396 26.6731C133.341 26.5137 133.027 26.1629 133.132 25.9654C133.293 25.6618 134.08 26.1255 134.18 26.1959C134.9 26.7011 135.055 27.1624 134.542 27.7995C135.252 27.8765 134.656 28.5009 135.115 28.6636C135.814 28.9119 135.345 27.7355 135.269 27.5286C135.695 27.6954 135.837 27.8858 136.107 28.2237C136.265 28.4567 136.409 28.6989 136.539 28.949C136.684 29.4062 136.982 29.5205 137.434 29.2925C138.339 29.5782 139.59 29.5334 140.401 30.0326C140.772 30.2604 140.906 30.759 141.215 30.9483C141.564 31.1615 142.031 31.0648 142.405 31.1986C142.268 31.5113 142.379 31.6805 142.737 31.7069C143.015 31.7324 143.285 31.7953 143.546 31.8956C143.739 31.7486 143.954 31.631 144.181 31.5467C144.335 31.819 144.553 31.8863 144.834 31.7492C145.669 31.9063 146.07 32.2237 146.601 32.6981C147.077 33.124 146.69 33.1586 147.212 33.1207C147.421 33.1056 147.789 32.7481 148.268 32.8179C148.545 32.8718 148.811 32.9575 149.067 33.0742C149.344 33.3124 149.638 33.3424 149.95 33.1644C150.456 33.4125 150.505 33.8526 151.122 33.9128C151.803 33.9795 151.584 33.1254 152.053 34.3298C152.683 33.0528 152.914 35.0873 153.565 35.2516C154.239 35.4219 154.312 34.8724 154.889 35.4727C155.062 35.6527 155.053 35.9499 155.247 36.1406C155.565 36.4527 155.996 36.3906 156.272 36.8165C156.118 36.5786 156.309 37.6586 156.305 37.6228C156.348 38.0992 155.927 38.6331 156.791 38.5927C156.781 38.6424 156.366 39.2498 156.285 39.1812C156.265 39.1117 156.249 39.0414 156.235 38.9704C156.143 39.0105 156.101 39.5891 156.119 39.6914C156.192 39.7029 156.222 39.6482 156.209 39.5273C156.066 39.9735 156.28 40.257 156.008 40.6807C155.833 40.9513 155.356 41.1549 155.102 41.3219C154.491 41.722 153.888 42.1346 153.293 42.5594C151.901 43.5605 150.341 44.768 148.588 44.9771C149.468 44.1078 154.536 40.8192 151.995 39.8752C151.523 39.7001 150.665 39.5345 150.172 39.4977C149.558 39.4521 148.924 39.8048 148.248 39.5845C147.431 39.3194 147.739 38.5484 147.241 38.2718C146.182 37.6852 146.432 39.0649 146.099 39.4262C145.749 39.0573 145.823 38.8776 145.271 38.8443C144.71 38.8103 144.576 39.3314 143.921 39.0067C143.019 38.5594 143.497 37.6682 142.217 37.6473C142.238 37.4517 142.424 36.9049 142.18 36.7525C141.851 37.1813 142.105 37.661 141.8 38.074C141.647 38.2811 141.315 38.4462 141.073 38.5135C140.505 38.6699 140.425 38.9696 140.517 38.1113C140.097 38.8724 138.807 38.5592 138.04 38.4828C136.793 38.3583 135.468 38.1212 134.273 37.7195C133.167 37.3478 132.577 36.7093 131.665 36.1283C131.321 35.9085 131.156 35.9925 130.662 35.8563C130.174 35.7216 129.699 35.4606 129.928 34.8595ZM132.559 21.3838C132.747 21.2701 132.883 22.9702 132.654 23.2878C132.237 22.624 131.496 21.6503 132.559 21.3838ZM133.161 20.7057C133.766 20.1552 133.345 21.5769 133.234 21.8157L132.561 21.3822C132.847 21.2058 132.919 20.9253 133.16 20.7057H133.161ZM155.998 18.4144C161.59 19.5936 167.132 21.7976 171.617 25.4249C175.702 28.7287 178.586 33.4163 180.203 38.4025C181.881 43.5781 181.317 49.3202 177.324 53.2814C175.221 55.3677 172.444 56.6266 169.797 57.8549C168.529 58.4434 167.223 58.9336 165.95 59.5086C165.035 59.9215 163.919 60.582 162.875 60.4674C163.408 59.9048 164.18 59.8932 164.824 59.5493C165.603 59.133 166.238 58.3346 166.91 57.7643C167.576 57.198 169.053 55.415 170.077 55.8466C169.935 54.8965 171.012 54.4556 171.498 53.8292C172.011 53.1665 172.048 52.3915 172.994 52.1747C171.978 51.3758 172.289 49.8694 172.51 48.7817C172.793 47.3915 172.923 46.1145 173.035 44.6993C173.236 42.1481 173.398 38.8979 171.995 36.6549C171.539 35.9269 170.96 35.2576 170.554 34.501C170.064 33.5894 170.172 32.7871 170.172 31.7876C169.277 32.3921 169.088 31.1599 168.71 30.5596C168.426 30.109 168.054 29.857 167.962 29.2903C167.896 28.8776 168.341 28.8078 168.097 28.3754C167.797 28.6026 167.678 28.9551 167.526 29.282C167.25 29.1707 167.576 28.7839 167.417 28.6584C167.413 28.6548 166.879 28.4221 166.906 28.4556C166.563 28.0188 166.452 27.2932 166.284 26.7728C165.655 27.0929 165.773 27.0553 165.071 26.5206C164.948 26.4267 164.33 25.9942 164.272 25.853C164.001 25.1925 164.477 25.5837 164.344 25.1736C163.962 23.996 161.819 24.2186 161.649 22.4539C160.604 23.1207 160.205 22.1762 159.587 21.5041C158.954 20.8159 157.892 20.5511 157.949 19.4595L156.962 19.7977C157.133 18.7905 155.644 18.8546 155.104 18.3435C155.404 18.3474 155.702 18.371 155.998 18.4144ZM156.849 80.8078C157.368 80.3418 157.21 80.9616 157.544 80.8908C157.829 80.8303 157.886 80.6133 158.159 80.5471C159.286 80.2734 160.97 80.6171 162.155 80.558C163.528 80.4899 165.88 80.7762 166.534 82.3897C166.928 83.3612 166.327 83.0307 165.665 82.9584C165.151 82.9027 164.694 83.0071 164.186 83.0018C163.937 83.0408 163.683 83.0368 163.435 82.99C163.377 82.9527 163.327 82.9029 163.29 82.8441C163.252 82.7853 163.228 82.719 163.219 82.6499C162.512 82.5425 161.761 82.9628 160.978 82.9837C159.932 83.0117 159.004 82.8104 158.21 82.1013C157.894 82.5738 157.679 82.8087 157.111 82.8615C157.096 82.8628 156.541 82.6387 156.456 82.6161C156.342 82.5864 156.055 82.826 155.836 82.7576C156.224 82.1356 156.281 81.3182 156.849 80.8075V80.8078ZM228.234 86.4224C228.419 85.7776 228.573 85.1242 228.741 84.4753C231.321 87.426 233.579 91.3767 234.595 95.1613C235.255 97.6205 236.282 102.077 233.136 103.345C230.573 104.378 229.144 100.675 228.496 98.8505C227.064 94.8234 227.064 90.5198 228.234 86.4224ZM112.807 40.182C112.839 40.1754 111.136 41.1705 111.698 40.3647C111.923 40.0405 112.778 39.8125 113.157 39.8125L112.807 40.182ZM111.168 40.6038C110.971 40.7703 110.772 40.9348 110.571 41.0972L109.992 40.1787C110.373 40.0177 111.987 39.8969 111.168 40.6038ZM109.968 71.5496C109.611 71.307 109.329 71.4359 109.222 71.843C109.222 71.4381 109.432 70.4968 109.754 70.3869C109.963 70.316 109.061 69.244 109.315 68.9638C109.959 69.3347 109.573 69.6899 109.762 70.1688C109.847 70.3847 110.103 70.5891 110.159 70.7551C110.254 71.0369 110.639 72.0057 109.968 71.5496ZM108.222 69.1377C107.857 69.2316 108.496 69.8369 108.495 70.1048C108.495 70.307 108.253 70.4622 108.153 70.7391C107.937 71.3389 108.309 71.7441 107.696 72.2018C107.696 70.8875 106.819 67.4049 108.505 66.7642C107.682 66.1131 108.358 65.3614 109.003 66.1405C109.624 66.89 109.228 68.8789 108.222 69.1379V69.1377ZM107.343 63.9509C107.011 62.7695 106.013 62.3563 104.872 62.4261C104.916 61.8216 105.372 60.9493 105.701 62.0395C105.837 61.7172 105.931 61.2969 106.24 61.0834C106.76 62.7222 109.354 63.6278 107.739 65.4037C107.607 64.9196 107.479 64.4344 107.343 63.9509H107.343ZM104.328 62.5142C98.3218 62.9519 89.889 64.2042 85.0823 59.5781C81.9481 56.5617 82.1155 51.8645 84.6483 48.5132C86.0937 46.601 88.0668 45.2543 90.0484 43.9715C90.813 43.4762 91.4607 43.1495 92.3002 42.8649C92.4361 42.85 92.5641 42.8805 92.6836 42.9564C92.7309 42.7525 92.8449 42.6019 93.0267 42.5033C93.351 42.3291 93.8129 42.267 93.9996 41.9049C93.8003 42.5846 93.6977 43.2841 93.6247 43.9875L93.1397 43.4196C93.0046 44.7004 91.6765 43.9251 90.8838 44.085C91.4061 44.8114 91.7796 45.0751 91.8244 46.0351C91.4353 45.3133 90.6218 44.8389 89.8655 44.6064C90.2762 45.8271 90.5666 46.5516 90.1532 47.8901C89.6536 47.6036 89.62 46.9154 89.014 46.7505C88.8541 47.5486 88.8259 48.4344 88.6211 49.2089C87.0696 48.4979 87.2211 50.4128 87.844 51.3601C88.1751 51.8645 88.3378 52.4481 88.6334 52.9319C89.3586 54.1188 88.8076 52.3439 89.6137 52.428C89.4327 53.68 89.3695 53.8044 90.2814 54.7215C91.1714 55.6155 91.633 56.856 92.5849 57.6959C92.8605 57.342 92.4271 56.9717 92.3891 56.6326C93.275 56.7821 93.6895 57.6744 94.541 56.884C94.9124 57.6112 95.3143 58.4121 96.2035 58.5613C95.6156 57.4384 97.3325 58.2 97.7728 58.3594C98.1066 58.4802 98.7049 58.5764 98.8337 58.6231C99.5592 58.886 99.0618 58.4138 99.502 59.2767C100.148 59.0805 100.393 58.5418 101.166 58.997C101.794 59.3674 101.796 60.0015 101.939 60.651C102.087 60.2252 102.243 59.8022 102.406 59.3822C102.575 59.4536 103.283 60.2364 103.206 60.24C104.862 60.1584 104.804 61.1919 104.328 62.5142ZM95.8945 41.3263C96.2273 41.092 96.6334 41.4044 97.0069 41.3203C97.5242 41.2043 97.8179 40.7593 98.3957 40.7115C98.2349 41.2277 97.9333 41.1793 97.6779 41.5846C97.5909 41.7228 97.6363 42.0544 97.5589 42.1338C96.9114 42.8 96.6878 42.2563 96.0269 41.7519C96.0843 42.3602 96.2008 42.5522 95.6304 42.7154C95.1142 42.8635 94.2618 42.3187 94.0015 41.9008C94.2211 41.4596 95.4964 41.6074 95.8945 41.3266V41.3263ZM100.016 40.3757C100.577 40.4296 99.9012 42.0923 99.0976 40.4796C99.3994 40.4134 99.7072 40.3786 100.016 40.3757ZM102.9 40.0543C103.785 39.873 106.735 39.0284 107.063 40.4117C107.122 40.3774 107.342 39.5963 107.444 39.6916C107.852 40.0735 107.898 40.5796 107.867 41.1098C107.373 40.0763 107.548 40.9843 107.214 40.9134C107.127 40.8947 106.993 41.0587 106.772 40.9911C106.482 40.9021 106.274 40.2823 106.091 40.0721C105.786 40.5093 105.408 41.0725 104.797 41.0346C104.365 41.0076 103.668 39.8897 104.228 41.1137C103.899 41.0046 103.519 40.7576 103.153 40.8071C102.743 40.8628 102.53 41.2692 102.146 41.3348C101.294 41.4799 101.166 40.6562 100.613 40.2092C101.375 40.1647 102.147 40.2087 102.9 40.0546V40.0543ZM108.251 40.0411C108.314 39.7576 109.088 39.643 109.285 39.7331C109.766 39.9526 109.588 40.2425 109.5 40.7246L108.429 40.2156C108.962 41.0777 107.996 41.2027 108.251 40.0411ZM258.079 90.5371C258.015 88.4711 257.956 86.3696 257.434 84.3582C257.07 82.9508 256.173 80.4267 254.478 80.1822C251.922 79.8138 250.506 84.8901 249.79 86.6325C249.647 84.5811 249.772 82.3974 249.001 80.4503C248.383 78.8898 246.824 77.412 245.48 79.1646C244.284 80.724 244.055 83.026 243.74 84.9025C243.332 87.3339 243.087 89.7841 242.79 92.2298C241.622 89.9629 241.418 87.3677 240.495 85.0116C239.624 82.7881 238.254 80.6646 236.934 78.6871C235.856 77.0716 234.545 75.5528 232.856 74.5654C231.386 73.706 228.816 72.7763 227.415 74.2036C226.246 75.3946 226.429 76.9884 226.49 78.4915C226.517 79.1607 226.621 79.6195 226.036 79.9569C225.748 80.1226 225.298 80.0366 224.982 80.1253C224.472 80.2682 224.081 80.5108 223.65 80.8328C220.627 83.0903 219.233 87.1587 218.802 90.7858C218.256 95.3816 220.039 99.3214 221.574 103.527C221.818 104.197 222.595 105.618 222.487 106.367C222.37 107.186 221.346 107.207 220.655 107.225C218.568 107.276 216.386 107.12 214.31 106.925C209.366 106.46 204.427 104.069 200 101.934C199.193 101.544 198.05 101.321 197.391 100.707C196.771 100.131 196.608 99.2065 196.073 98.5452C194.76 96.9218 193.923 95.5368 191.99 94.556C190.022 93.5576 188.013 92.6348 186.092 91.5413C183.717 90.1882 181.523 88.4744 179.246 86.9595C175.016 84.1448 170.815 81.0592 166.33 78.6656C164.247 77.5532 161.918 77.3733 159.754 76.4622C157.647 75.5756 155.061 75.5745 152.862 76.1345C151.791 76.4075 151.062 77.0543 150.077 77.4766C148.923 77.9714 147.981 77.4252 146.966 76.8345C145.414 75.9323 143.875 74.4618 146.085 73.4882C146.835 73.1579 147.774 73.0329 148.429 72.5134C149.128 71.9603 149.688 70.9391 150.256 70.2462C151.517 68.7052 152.271 66.9315 154.118 65.9732C156.161 64.9135 158.582 64.6251 160.76 63.9325C163.12 63.1824 165.43 62.2903 167.746 61.4145C171.919 59.8366 176.256 58.133 179.254 54.6592C181.84 51.6626 182.967 47.7942 182.863 43.8655C182.65 35.834 178.368 27.6828 172.224 22.6611C164.691 16.5036 155.107 14.4502 145.591 14.5579C141.125 14.6085 135.795 15.1958 132.068 17.9221C128.85 20.2769 128.314 24.3958 128.793 28.1136C128.987 29.6224 129.652 31.6137 128.592 32.9435C128 33.6872 126.935 33.8713 126.137 34.335C125.134 34.9175 124.249 35.4763 123.113 35.7843C118.286 37.0942 113.201 36.6382 108.266 36.5656C100.044 36.4448 91.6166 38.6811 85.4834 44.5023C80.5304 49.2026 79.045 58.0659 85.0858 62.648C89.9664 66.3499 97.6216 65.9427 103.376 65.2971C105.161 65.0965 106.388 64.8053 106.392 66.9991C106.396 69.3954 106.002 71.8999 106.61 74.2522C107.568 77.9574 111.112 78.0455 114.244 77.2477C115.897 76.8268 117.495 76.1938 119.065 75.5306C121.367 74.5586 123.477 73.1288 125.751 72.1582C127.292 71.5004 128.446 73.6277 129.814 72.1529C130.066 71.8804 130.113 71.4743 130.494 71.3348C131.091 71.1163 132.093 71.8823 132.617 72.1246C133.401 72.4873 134.192 72.7541 134.505 73.6275C134.798 74.4448 134.669 75.7443 134.389 76.5507C133.778 78.303 132.136 77.9565 130.636 77.8392C128.02 77.6348 125.422 77.201 122.807 77.0189C120.461 76.8557 118.264 77.5601 116.24 78.7222C111.99 81.1638 108.513 85.0473 104.827 88.2409C102.931 89.8844 101.097 91.6597 99.0347 93.0908C98.1378 93.7134 97.1666 94.2854 96.3873 95.0588C95.6137 95.8259 95.5287 96.5232 95.2643 97.5444C94.7931 99.362 92.4536 100.251 90.9913 101.209C88.9232 102.566 86.7308 103.522 84.4124 104.355C79.5028 106.117 74.5544 107.347 69.4214 108.256C66.9085 108.702 64.4161 108.995 61.8786 109.235C59.6911 109.442 57.3653 110.119 55.1805 109.579C55.8097 108.553 56.9248 107.937 57.7932 107.144C58.9127 106.123 59.8648 104.912 60.7122 103.657C62.3613 101.214 63.5182 98.5931 63.7837 95.63C64.0232 92.9631 63.7487 89.7731 62.1472 87.5202C61.594 86.7419 60.4994 86.5303 60.0045 85.8292C59.5123 85.1325 59.6999 83.9327 59.4303 83.1203C58.744 81.0537 56.7079 78.4928 54.9158 77.2925C52.9717 75.9902 50.1279 75.5116 47.8819 76.1902C43.7213 77.4477 41.1655 81.9153 39.2615 85.5259C38.2217 83.3271 39.9632 80.0649 37.9315 78.2645C36.2179 76.7452 34.8581 79.6877 34.2847 80.9465C31.5941 86.8562 30.9832 93.1235 29.8561 99.4464C29.3967 98.9914 29.6319 97.8238 29.6754 97.2809C29.7558 96.2707 29.7484 95.2797 29.7503 94.2654C29.7558 91.7023 30.2299 89.1277 30.0128 86.5671C29.887 85.0869 29.4172 81.9658 27.277 82.4576C25.4617 82.8747 24.3247 85.4393 23.7543 87.0073C22.9318 89.2689 22.7418 91.5078 22.7932 93.8969C22.8498 96.5366 22.3492 99.1335 22.2277 101.769C21.9923 106.89 22.225 111.965 23.6871 116.907C26.0816 124.999 31.5867 131.723 38.9345 135.783C42.9827 138.02 47.4737 139.436 52.0909 139.74C54.5932 139.905 57.0087 139.605 59.4896 139.346C61.9377 139.089 64.3986 138.97 66.8424 138.67C72.2851 137.999 77.5884 136.268 82.5355 133.938C85.1394 132.712 87.5883 131.206 90.1496 129.899C91.1775 129.374 91.8717 128.718 92.7489 127.989C93.6184 127.266 93.8591 127.209 94.8481 127.209C94.558 126.429 95.4045 126.189 95.7813 125.696L95.7179 126.413C96.005 125.787 96.2724 125.793 96.5199 126.431C96.7643 125.717 96.9454 124.982 97.2407 124.286C98.3697 124.86 98.2748 126.225 99.7845 125.228C101.028 124.408 102.171 123.441 103.438 122.637C106.326 120.806 108.815 118.423 111.71 116.613C111.71 118.376 111.834 120.155 111.6 121.909C111.377 123.576 110.757 125.135 110.264 126.732C109.355 129.678 109.292 132.826 108.285 135.742C107.868 136.95 106.783 137.96 106.471 139.136C106.154 140.335 106.887 141.296 105.659 142.083C104.792 142.638 103.71 142.873 102.751 143.209C101.288 143.721 99.8988 144.444 98.4747 145.058C91.7946 147.934 85.2786 150.863 79.0899 154.729C73.2165 158.399 67.2533 162.189 61.8579 166.547C57.1752 170.329 52.4418 175.22 51.3018 181.39C50.1957 187.374 53.1429 193.798 59.0603 195.769C62.137 196.794 65.6154 196.667 68.8196 196.712C72.2676 196.759 75.9207 195.924 79.3108 195.32C82.8907 194.682 86.4093 193.684 89.9995 193.114C93.4443 192.567 96.6036 191.346 99.992 190.593C103.601 189.791 107.302 189.356 110.931 188.634C112.565 188.31 114.165 187.83 115.804 187.53C117.597 187.201 119.41 187.077 121.186 186.641C124.631 185.795 127.929 184.432 131.389 183.645C132.944 183.291 134.476 182.817 136.032 182.486C137.465 182.182 138.581 181.373 140.017 182.037C141.177 182.574 142.102 183.494 143.199 184.136C144.624 184.967 146.125 185.712 147.609 186.428C150.592 187.866 153.685 188.86 156.804 189.94C160.08 191.074 163.297 192.367 166.691 193.116C170.17 193.884 173.719 194.098 177.223 194.705C184.398 195.949 191.512 196.507 198.794 196.552C202.476 196.575 206.156 196.137 209.829 196.189C213.08 196.235 215.907 196.971 218.88 195.234C223.63 192.459 229.14 188.279 229.024 182.208C228.917 176.709 225.635 171.455 222.555 167.118C218.816 161.851 213.484 158.142 208.259 154.509C202.689 150.637 196.434 147.962 190.58 144.582C187.587 142.853 184.826 140.994 181.576 139.765C180.024 139.179 178.51 138.5 176.977 137.868C175.743 137.36 173.961 137.08 172.905 136.237C172.246 135.711 172.183 134.915 172.009 134.133C171.623 132.403 171.018 130.763 170.431 129.095C169.298 125.873 168.544 122.592 168.057 119.213C167.593 115.992 166.563 112.643 167.096 109.369C170.607 112.781 174.214 116.061 177.807 119.383C179.153 120.627 180.474 121.899 181.827 123.136C182.843 124.065 184.113 125.444 185.529 125.72C187.338 126.072 186.677 124.062 187.919 123.751C188.678 123.561 190.967 125.498 191.567 125.881C195.37 128.307 199.581 129.844 203.764 131.495C208.15 133.227 212.661 134.765 217.381 135.2C221.741 135.604 226.199 135.086 230.406 133.893C238.784 131.516 244.95 125.877 249.475 118.567C254.63 110.238 258.382 100.481 258.079 90.5371Z" fill="black"/>
<path fill-rule="evenodd" clip-rule="evenodd" d="M130.025 72.3788C130.02 72.3887 130.016 72.3986 130.011 72.4086C130.027 72.3977 130.031 72.3877 130.025 72.3788Z" fill="black"/>
<path fill-rule="evenodd" clip-rule="evenodd" d="M130.43 72.4865C130.398 72.2186 130.329 71.9563 130.227 71.707C129.949 72.1488 129.701 72.3381 130.065 72.806L130.43 72.4865ZM149.75 135.633C150.06 135.301 149.518 135.176 149.312 135.172C149.332 135.528 149.157 136.381 149.641 136.546C149.525 136.224 149.561 135.919 149.75 135.633ZM141.566 66.2241C141.032 67.2587 142.21 67.5796 142.892 67.0799C143.405 66.704 143.709 65.746 143.793 65.1314C144.066 63.1429 142.681 61.2499 141.99 59.4852C141.812 59.0292 141.567 57.4648 140.993 57.422C140.332 57.3725 140.284 58.8132 140.275 59.185C140.25 60.3059 140.545 61.4477 140.891 62.5057C141.264 63.6465 142.189 65.0158 141.566 66.2241ZM144.102 62.0747C146.151 63.9083 147.791 60.8543 147.647 59.0479C147.612 58.6 147.311 56.95 146.466 57.5505C146.042 57.8522 146.404 58.8327 146.201 59.2633C145.221 61.3502 144.277 58.1129 143.617 57.8588C142.814 57.5492 142.733 58.6094 142.734 59.1762C142.736 60.3012 143.269 61.3296 144.102 62.0747ZM136.662 62.3596C137.145 61.5958 137.738 60.571 137.804 59.6561C137.906 58.2338 137.081 58.3525 136.402 59.3449C135.922 60.046 135.563 61.2351 134.504 60.9394C133.197 60.5751 133.596 58.8091 132.865 57.9701C131.017 60.4636 134.513 65.7581 136.662 62.3596ZM139.431 69.9905C140.196 70.1564 142.188 70.0954 141.498 68.9195C140.627 67.4387 137.732 69.6212 139.431 69.9905ZM166.204 25.8255C166.344 25.4068 166.152 25.331 165.818 25.0013C165.502 25.2942 165.907 25.6024 166.204 25.8255ZM180.458 101.64C180.962 101.72 181.125 101.452 180.945 100.836C180.149 100.784 179.987 101.052 180.458 101.64M152.927 36.9662C153.483 37.2217 153.27 37.7459 153.261 38.1888C153.547 37.8762 154.126 37.3041 153.89 36.8549C153.527 36.1623 152.579 36.8063 152.927 36.9662ZM133.984 28.2474L133.73 27.7487C133.385 28.0273 132.852 28.7636 133.4 29.1224C133.623 28.8509 133.819 28.5578 133.984 28.2474ZM140.657 33.1347C141.349 33.6798 141.017 32.0063 140.996 31.8698C140.893 32.066 140.307 32.8591 140.657 33.1347ZM140.273 32.2847L140.115 31.8698C139.834 32.1308 139.491 32.6635 139.954 32.9688C140.082 32.7518 140.189 32.5226 140.273 32.2847ZM144.668 38.0314C144.724 38.0836 144.781 38.1361 144.837 38.1888C145.065 37.7261 144.806 37.3789 144.375 37.3646C144.406 37.6242 144.503 37.8465 144.668 38.0314ZM126.127 90.069C126.399 89.8832 126.65 89.6678 126.875 89.4266C126.063 88.9277 126.55 90.0091 125.572 89.3451C125.361 89.6376 125.705 90.2926 126.127 90.069ZM160.262 135.447C160.571 134.97 160.627 134.984 160.205 134.622C159.853 135.211 159.89 135.06 160.263 135.447M95.7031 59.6397L96.2076 60.168C96.2861 59.9372 96.7143 59.2861 96.4236 59.069L95.7031 59.6397ZM101.684 61.3829C101.416 61.3378 100.774 61.1411 100.625 61.3919C101.018 61.7153 101.904 61.42 101.684 61.3829Z" fill="black"/>
</svg>
