<svg width="135" height="30" viewBox="0 0 135 30" fill="none" xmlns="http://www.w3.org/2000/svg">
<path d="M0 12C0 7.79961 0 5.69941 0.817451 4.09507C1.5365 2.68386 2.68386 1.5365 4.09507 0.817451C5.69941 0 7.79961 0 12 0H18C22.2004 0 24.3006 0 25.9049 0.817451C27.3161 1.5365 28.4635 2.68386 29.1825 4.09507C30 5.69941 30 7.79961 30 12V18C30 22.2004 30 24.3006 29.1825 25.9049C28.4635 27.3161 27.3161 28.4635 25.9049 29.1825C24.3006 30 22.2004 30 18 30H12C7.79961 30 5.69941 30 4.09507 29.1825C2.68386 28.4635 1.5365 27.3161 0.817451 25.9049C0 24.3006 0 22.2004 0 18V12Z" fill="white"/>
<path d="M14.3625 15.6562C14.9875 16.2812 15.6719 16.8188 16.4156 17.2687C17.1594 17.7188 17.9625 18.0687 18.825 18.3187C18.35 18.8812 17.7812 19.3125 17.1188 19.6125C16.4563 19.9125 15.7562 20.0625 15.0187 20.0625C13.6187 20.0625 12.425 19.5688 11.4375 18.5812C10.45 17.5938 9.95625 16.4 9.95625 15C9.95625 14.2625 10.1062 13.5625 10.4062 12.9C10.7063 12.2375 11.1375 11.6687 11.7 11.1938C11.95 12.0563 12.3 12.8594 12.75 13.6031C13.2 14.3469 13.7375 15.0312 14.3625 15.6562ZM19.5 17.3438C19.3125 17.2938 19.125 17.2406 18.9375 17.1844C18.75 17.1281 18.5688 17.0625 18.3937 16.9875C18.5688 16.6875 18.7031 16.3687 18.7969 16.0312C18.8906 15.6938 18.9375 15.35 18.9375 15C18.9375 13.9 18.5562 12.9688 17.7938 12.2062C17.0312 11.4437 16.1 11.0625 15 11.0625C14.65 11.0625 14.3062 11.1094 13.9688 11.2031C13.6313 11.2969 13.3125 11.4312 13.0125 11.6062C12.95 11.4312 12.8906 11.2531 12.8344 11.0719C12.7781 10.8906 12.725 10.7062 12.675 10.5187C13.0375 10.3312 13.4156 10.1875 13.8094 10.0875C14.2031 9.9875 14.6062 9.9375 15.0187 9.9375C16.4187 9.9375 17.6125 10.4312 18.6 11.4187C19.5875 12.4062 20.0812 13.6 20.0812 15C20.0812 15.4125 20.0312 15.8156 19.9313 16.2094C19.8313 16.6031 19.6875 16.9813 19.5 17.3438ZM14.4375 8.25V6H15.5625V8.25H14.4375ZM14.4375 24V21.75H15.5625V24H14.4375ZM20.175 10.6313L19.3688 9.825L20.9625 8.25L21.7687 9.0375L20.175 10.6313ZM9.0375 21.75L8.23125 20.9625L9.825 19.3688L10.6313 20.175L9.0375 21.75ZM21.75 15.5625V14.4375H24V15.5625H21.75ZM6 15.5625V14.4375H8.25V15.5625H6ZM20.9625 21.7687L19.3688 20.175L20.175 19.3688L21.75 20.9625L20.9625 21.7687ZM9.825 10.6313L8.25 9.0375L9.0375 8.23125L10.6313 9.825L9.825 10.6313Z" fill="#97266D"/>
<path d="M36.8569 22.115V7.94541H40.5897V10.4454H40.7552C41.0494 9.61513 41.5398 8.96016 42.2263 8.48046C42.9127 8.00076 43.7341 7.76091 44.6903 7.76091C45.6587 7.76091 46.4831 8.00383 47.1635 8.48968C47.8438 8.96938 48.2974 9.62128 48.5242 10.4454H48.6713C48.9594 9.63358 49.4804 8.98476 50.2343 8.49891C50.9943 8.00691 51.8923 7.76091 52.9281 7.76091C54.2459 7.76091 55.3155 8.18218 56.1368 9.02473C56.9643 9.86113 57.378 11.0481 57.378 12.5856V22.115H53.4706V13.3605C53.4706 12.5733 53.2622 11.9829 52.8454 11.5893C52.4286 11.1957 51.9076 10.9989 51.2824 10.9989C50.5714 10.9989 50.0167 11.2264 49.6183 11.6815C49.2199 12.1305 49.0207 12.724 49.0207 13.462V22.115H45.2235V13.2775C45.2235 12.5825 45.0243 12.029 44.6259 11.617C44.2336 11.2049 43.7157 10.9989 43.0721 10.9989C42.6369 10.9989 42.2446 11.1096 41.8953 11.331C41.552 11.5462 41.2793 11.8507 41.077 12.2443C40.8747 12.6317 40.7736 13.0868 40.7736 13.6096V22.115H36.8569Z" fill="white"/>
<path d="M60.4718 22.115V7.94541H64.3885V22.115H60.4718ZM62.4394 6.11886C61.8571 6.11886 61.3575 5.92513 60.9407 5.53768C60.5301 5.14408 60.3247 4.67361 60.3247 4.12626C60.3247 3.58506 60.5301 3.12073 60.9407 2.73328C61.3575 2.33968 61.8571 2.14288 62.4394 2.14288C63.0216 2.14288 63.5181 2.33968 63.9288 2.73328C64.3456 3.12073 64.554 3.58506 64.554 4.12626C64.554 4.67361 64.3456 5.14408 63.9288 5.53768C63.5181 5.92513 63.0216 6.11886 62.4394 6.11886Z" fill="white"/>
<path d="M73.9066 22.3917C72.4601 22.3917 71.2158 22.0842 70.1738 21.4692C69.138 20.8481 68.3412 19.9871 67.7834 18.8863C67.2318 17.7854 66.9559 16.5185 66.9559 15.0856C66.9559 13.6342 67.2348 12.3611 67.7926 11.2664C68.3565 10.1656 69.1564 9.30763 70.1922 8.69263C71.2281 8.07148 72.4601 7.76091 73.8882 7.76091C75.1202 7.76091 76.199 7.98538 77.1245 8.43433C78.0501 8.88328 78.7825 9.51366 79.3219 10.3255C79.8613 11.1373 80.1586 12.0905 80.2137 13.1852H76.5177C76.4135 12.478 76.1377 11.9091 75.6903 11.4786C75.249 11.0419 74.6697 10.8236 73.9526 10.8236C73.3458 10.8236 72.8156 10.9897 72.362 11.3218C71.9146 11.6477 71.5652 12.1243 71.3139 12.7516C71.0626 13.3789 70.937 14.1385 70.937 15.0302C70.937 15.9343 71.0595 16.703 71.3047 17.3365C71.556 17.9699 71.9085 18.4527 72.362 18.7848C72.8156 19.1169 73.3458 19.2829 73.9526 19.2829C74.4 19.2829 74.8015 19.1907 75.157 19.0062C75.5187 18.8217 75.8159 18.5542 76.0488 18.2036C76.2879 17.8469 76.4442 17.4195 76.5177 16.9213H80.2137C80.1525 18.0037 79.8582 18.957 79.3311 19.7811C78.8101 20.599 78.0899 21.2386 77.1705 21.6999C76.2511 22.1611 75.1631 22.3917 73.9066 22.3917Z" fill="white"/>
<path d="M85.0107 22.3549C84.4039 22.3549 83.8829 22.1396 83.4477 21.7091C83.0187 21.2725 82.8042 20.7497 82.8042 20.1409C82.8042 19.5382 83.0187 19.0216 83.4477 18.5911C83.8829 18.1606 84.4039 17.9453 85.0107 17.9453C85.5992 17.9453 86.114 18.1606 86.5553 18.5911C86.9966 19.0216 87.2173 19.5382 87.2173 20.1409C87.2173 20.5467 87.1131 20.9188 86.9047 21.2571C86.7024 21.5892 86.4358 21.8567 86.1048 22.0597C85.7738 22.2565 85.4091 22.3549 85.0107 22.3549Z" fill="white"/>
<path d="M95.6367 22.3456C94.5641 22.3456 93.5926 22.0689 92.7222 21.5154C91.858 20.9557 91.1715 20.1347 90.6628 19.0523C90.1602 17.9638 89.9089 16.6292 89.9089 15.0487C89.9089 13.4251 90.1694 12.0751 90.6904 10.9989C91.2113 9.91648 91.904 9.10776 92.7682 8.57271C93.6386 8.03151 94.5917 7.76091 95.6276 7.76091C96.4182 7.76091 97.0772 7.89621 97.6043 8.16681C98.1375 8.43126 98.5666 8.76336 98.8914 9.16311C99.2224 9.5567 99.4737 9.94416 99.6453 10.3255H99.7649V3.22221H103.672V22.115H99.8108V19.8457H99.6453C99.4615 20.2393 99.201 20.6298 98.8639 21.0172C98.5329 21.3985 98.1007 21.7153 97.5675 21.9674C97.0404 22.2195 96.3968 22.3456 95.6367 22.3456ZM96.8779 19.2184C97.5093 19.2184 98.0425 19.0462 98.4777 18.7017C98.919 18.3512 99.2561 17.8623 99.4891 17.235C99.7281 16.6077 99.8476 15.8728 99.8476 15.0302C99.8476 14.1877 99.7312 13.4558 99.4982 12.8347C99.2653 12.2135 98.9282 11.7338 98.4869 11.3956C98.0456 11.0573 97.5093 10.8882 96.8779 10.8882C96.2344 10.8882 95.6919 11.0635 95.2506 11.414C94.8093 11.7646 94.4752 12.2504 94.2484 12.8716C94.0217 13.4927 93.9083 14.2123 93.9083 15.0302C93.9083 15.8543 94.0217 16.5831 94.2484 17.2165C94.4814 17.8438 94.8154 18.3358 95.2506 18.6925C95.6919 19.0431 96.2344 19.2184 96.8779 19.2184Z" fill="white"/>
<path d="M110.92 22.3825C110.019 22.3825 109.216 22.2257 108.511 21.9121C107.806 21.5923 107.248 21.1218 106.837 20.5006C106.433 19.8733 106.231 19.0923 106.231 18.1575C106.231 17.3703 106.375 16.7092 106.663 16.1741C106.951 15.6391 107.343 15.2086 107.84 14.8826C108.336 14.5567 108.9 14.3107 109.531 14.1446C110.169 13.9786 110.837 13.8617 111.536 13.7941C112.357 13.708 113.019 13.628 113.521 13.5542C114.024 13.4743 114.389 13.3574 114.616 13.2037C114.842 13.0499 114.956 12.8224 114.956 12.521V12.4657C114.956 11.8814 114.772 11.4294 114.404 11.1096C114.042 10.7898 113.528 10.6299 112.859 10.6299C112.155 10.6299 111.594 10.7867 111.177 11.1004C110.76 11.4079 110.484 11.7953 110.35 12.2627L106.727 11.9675C106.911 11.1065 107.273 10.3624 107.812 9.73506C108.351 9.1016 109.047 8.61576 109.899 8.27751C110.757 7.93311 111.75 7.76091 112.878 7.76091C113.662 7.76091 114.413 7.85316 115.13 8.03766C115.854 8.22216 116.494 8.50813 117.052 8.89558C117.616 9.28303 118.06 9.78118 118.385 10.39C118.71 10.9927 118.872 11.7154 118.872 12.5579V22.115H115.158V20.1501H115.048C114.821 20.5929 114.517 20.9834 114.137 21.3217C113.757 21.6538 113.301 21.9151 112.768 22.1058C112.234 22.2903 111.618 22.3825 110.92 22.3825ZM112.041 19.6704C112.617 19.6704 113.126 19.5566 113.567 19.3291C114.009 19.0954 114.355 18.7817 114.606 18.3881C114.858 17.9945 114.983 17.5486 114.983 17.0505V15.5468C114.861 15.6268 114.692 15.7006 114.478 15.7682C114.269 15.8297 114.033 15.8881 113.77 15.9435C113.506 15.9927 113.243 16.0388 112.979 16.0819C112.715 16.1188 112.476 16.1526 112.262 16.1833C111.802 16.251 111.401 16.3586 111.057 16.5062C110.714 16.6538 110.448 16.8537 110.258 17.1058C110.068 17.3518 109.973 17.6593 109.973 18.0283C109.973 18.5634 110.166 18.9724 110.552 19.2553C110.944 19.532 111.441 19.6704 112.041 19.6704Z" fill="white"/>
<path d="M123.823 27.4286C123.327 27.4286 122.861 27.3886 122.426 27.3087C121.997 27.2349 121.641 27.1395 121.359 27.0227L122.242 24.0891C122.702 24.2306 123.115 24.3075 123.483 24.3198C123.857 24.3321 124.179 24.246 124.449 24.0615C124.724 23.877 124.948 23.5633 125.12 23.1205L125.35 22.5209L120.284 7.94541H124.403L127.326 18.3512H127.473L130.425 7.94541H134.571L129.082 23.6463C128.819 24.4089 128.46 25.0731 128.007 25.6389C127.559 26.2109 126.992 26.6506 126.306 26.9581C125.619 27.2718 124.792 27.4286 123.823 27.4286Z" fill="white"/>
</svg>
