<svg width="135" height="30" viewBox="0 0 135 30" fill="none" xmlns="http://www.w3.org/2000/svg">
<path d="M0 12C0 7.79961 0 5.69941 0.817451 4.09507C1.5365 2.68386 2.68386 1.5365 4.09507 0.817451C5.69941 0 7.79961 0 12 0H18C22.2004 0 24.3006 0 25.9049 0.817451C27.3161 1.5365 28.4635 2.68386 29.1825 4.09507C30 5.69941 30 7.79961 30 12V18C30 22.2004 30 24.3006 29.1825 25.9049C28.4635 27.3161 27.3161 28.4635 25.9049 29.1825C24.3006 30 22.2004 30 18 30H12C7.79961 30 5.69941 30 4.09507 29.1825C2.68386 28.4635 1.5365 27.3161 0.817451 25.9049C0 24.3006 0 22.2004 0 18V12Z" fill="#B83280"/>
<path d="M14.3625 15.6562C14.9875 16.2812 15.6719 16.8188 16.4156 17.2687C17.1594 17.7188 17.9625 18.0687 18.825 18.3187C18.35 18.8812 17.7812 19.3125 17.1188 19.6125C16.4563 19.9125 15.7562 20.0625 15.0187 20.0625C13.6187 20.0625 12.425 19.5688 11.4375 18.5812C10.45 17.5938 9.95625 16.4 9.95625 15C9.95625 14.2625 10.1062 13.5625 10.4062 12.9C10.7063 12.2375 11.1375 11.6687 11.7 11.1938C11.95 12.0563 12.3 12.8594 12.75 13.6031C13.2 14.3469 13.7375 15.0312 14.3625 15.6562ZM19.5 17.3438C19.3125 17.2938 19.125 17.2406 18.9375 17.1844C18.75 17.1281 18.5688 17.0625 18.3937 16.9875C18.5688 16.6875 18.7031 16.3687 18.7969 16.0312C18.8906 15.6938 18.9375 15.35 18.9375 15C18.9375 13.9 18.5562 12.9688 17.7938 12.2062C17.0312 11.4437 16.1 11.0625 15 11.0625C14.65 11.0625 14.3062 11.1094 13.9688 11.2031C13.6313 11.2969 13.3125 11.4312 13.0125 11.6062C12.95 11.4312 12.8906 11.2531 12.8344 11.0719C12.7781 10.8906 12.725 10.7062 12.675 10.5187C13.0375 10.3312 13.4156 10.1875 13.8094 10.0875C14.2031 9.9875 14.6062 9.9375 15.0187 9.9375C16.4187 9.9375 17.6125 10.4312 18.6 11.4187C19.5875 12.4062 20.0812 13.6 20.0812 15C20.0812 15.4125 20.0312 15.8156 19.9313 16.2094C19.8313 16.6031 19.6875 16.9813 19.5 17.3438ZM14.4375 8.25V6H15.5625V8.25H14.4375ZM14.4375 24V21.75H15.5625V24H14.4375ZM20.175 10.6313L19.3688 9.825L20.9625 8.25L21.7687 9.0375L20.175 10.6313ZM9.0375 21.75L8.23125 20.9625L9.825 19.3688L10.6313 20.175L9.0375 21.75ZM21.75 15.5625V14.4375H24V15.5625H21.75ZM6 15.5625V14.4375H8.25V15.5625H6ZM20.9625 21.7687L19.3688 20.175L20.175 19.3688L21.75 20.9625L20.9625 21.7687ZM9.825 10.6313L8.25 9.0375L9.0375 8.23125L10.6313 9.825L9.825 10.6313Z" fill="white"/>
<path d="M36.8569 22.1149V7.94534H40.5897V10.4453H40.7552C41.0494 9.61507 41.5398 8.96009 42.2263 8.48039C42.9127 8.0007 43.7341 7.76085 44.6903 7.76085C45.6587 7.76085 46.4831 8.00377 47.1635 8.48962C47.8438 8.96932 48.2974 9.62122 48.5242 10.4453H48.6713C48.9594 9.63352 49.4804 8.98469 50.2343 8.49884C50.9943 8.00685 51.8923 7.76085 52.9281 7.76085C54.2459 7.76085 55.3155 8.18212 56.1368 9.02467C56.9643 9.86107 57.378 11.048 57.378 12.5855V22.1149H53.4706V13.3604C53.4706 12.5732 53.2622 11.9828 52.8454 11.5892C52.4286 11.1956 51.9076 10.9988 51.2824 10.9988C50.5714 10.9988 50.0167 11.2264 49.6183 11.6815C49.2199 12.1304 49.0207 12.7239 49.0207 13.4619V22.1149H45.2235V13.2774C45.2235 12.5824 45.0243 12.0289 44.6259 11.6169C44.2336 11.2048 43.7157 10.9988 43.0721 10.9988C42.6369 10.9988 42.2446 11.1095 41.8953 11.3309C41.552 11.5462 41.2793 11.8506 41.077 12.2442C40.8747 12.6316 40.7736 13.0867 40.7736 13.6095V22.1149H36.8569Z" fill="#B83280"/>
<path d="M60.4718 22.1149V7.94534H64.3885V22.1149H60.4718ZM62.4394 6.1188C61.8571 6.1188 61.3575 5.92507 60.9407 5.53762C60.5301 5.14402 60.3247 4.67355 60.3247 4.1262C60.3247 3.585 60.5301 3.12067 60.9407 2.73322C61.3575 2.33962 61.8571 2.14282 62.4394 2.14282C63.0216 2.14282 63.5181 2.33962 63.9288 2.73322C64.3456 3.12067 64.554 3.585 64.554 4.1262C64.554 4.67355 64.3456 5.14402 63.9288 5.53762C63.5181 5.92507 63.0216 6.1188 62.4394 6.1188Z" fill="#B83280"/>
<path d="M73.9066 22.3917C72.4601 22.3917 71.2158 22.0842 70.1738 21.4692C69.138 20.848 68.3412 19.987 67.7834 18.8862C67.2318 17.7853 66.9559 16.5184 66.9559 15.0855C66.9559 13.6341 67.2348 12.361 67.7926 11.2663C68.3565 10.1655 69.1564 9.30757 70.1922 8.69257C71.2281 8.07142 72.4601 7.76085 73.8882 7.76085C75.1202 7.76085 76.199 7.98532 77.1245 8.43427C78.0501 8.88322 78.7825 9.51359 79.3219 10.3254C79.8613 11.1372 80.1586 12.0904 80.2137 13.1851H76.5177C76.4135 12.4779 76.1377 11.909 75.6903 11.4785C75.249 11.0419 74.6697 10.8235 73.9526 10.8235C73.3458 10.8235 72.8156 10.9896 72.362 11.3217C71.9146 11.6476 71.5652 12.1243 71.3139 12.7516C71.0626 13.3789 70.937 14.1384 70.937 15.0301C70.937 15.9342 71.0595 16.7029 71.3047 17.3364C71.556 17.9698 71.9085 18.4526 72.362 18.7847C72.8156 19.1168 73.3458 19.2829 73.9526 19.2829C74.4 19.2829 74.8015 19.1906 75.157 19.0061C75.5187 18.8216 75.8159 18.5541 76.0488 18.2035C76.2879 17.8468 76.4442 17.4194 76.5177 16.9213H80.2137C80.1525 18.0037 79.8582 18.9569 79.3311 19.781C78.8101 20.599 78.0899 21.2386 77.1705 21.6998C76.2511 22.1611 75.1631 22.3917 73.9066 22.3917Z" fill="#B83280"/>
<path d="M85.0107 22.3548C84.4039 22.3548 83.8829 22.1395 83.4477 21.709C83.0187 21.2724 82.8042 20.7496 82.8042 20.1408C82.8042 19.5381 83.0187 19.0215 83.4477 18.591C83.8829 18.1605 84.4039 17.9452 85.0107 17.9452C85.5992 17.9452 86.114 18.1605 86.5553 18.591C86.9966 19.0215 87.2173 19.5381 87.2173 20.1408C87.2173 20.5467 87.1131 20.9188 86.9047 21.257C86.7024 21.5891 86.4358 21.8566 86.1048 22.0596C85.7738 22.2564 85.4091 22.3548 85.0107 22.3548Z" fill="#B83280"/>
<path d="M95.6367 22.3456C94.5641 22.3456 93.5926 22.0688 92.7222 21.5153C91.858 20.9557 91.1715 20.1346 90.6628 19.0522C90.1602 17.9637 89.9089 16.6291 89.9089 15.0486C89.9089 13.425 90.1694 12.0751 90.6904 10.9988C91.2113 9.91642 91.904 9.1077 92.7682 8.57265C93.6386 8.03145 94.5917 7.76085 95.6276 7.76085C96.4182 7.76085 97.0772 7.89615 97.6043 8.16675C98.1375 8.4312 98.5666 8.76329 98.8914 9.16304C99.2224 9.55664 99.4737 9.94409 99.6453 10.3254H99.7649V3.22215H103.672V22.1149H99.8108V19.8456H99.6453C99.4615 20.2392 99.201 20.6297 98.8639 21.0172C98.5329 21.3985 98.1007 21.7152 97.5675 21.9673C97.0404 22.2195 96.3968 22.3456 95.6367 22.3456ZM96.8779 19.2183C97.5093 19.2183 98.0425 19.0461 98.4777 18.7017C98.919 18.3511 99.2561 17.8622 99.4891 17.2349C99.7281 16.6076 99.8476 15.8727 99.8476 15.0301C99.8476 14.1876 99.7312 13.4557 99.4982 12.8346C99.2653 12.2134 98.9282 11.7337 98.4869 11.3955C98.0456 11.0572 97.5093 10.8881 96.8779 10.8881C96.2344 10.8881 95.6919 11.0634 95.2506 11.4139C94.8093 11.7645 94.4752 12.2503 94.2484 12.8715C94.0217 13.4926 93.9083 14.2122 93.9083 15.0301C93.9083 15.8542 94.0217 16.583 94.2484 17.2165C94.4814 17.8438 94.8154 18.3358 95.2506 18.6925C95.6919 19.043 96.2344 19.2183 96.8779 19.2183Z" fill="#B83280"/>
<path d="M110.92 22.3825C110.019 22.3825 109.216 22.2256 108.511 21.912C107.806 21.5922 107.248 21.1217 106.837 20.5006C106.433 19.8733 106.231 19.0922 106.231 18.1574C106.231 17.3702 106.375 16.7091 106.663 16.174C106.951 15.639 107.343 15.2085 107.84 14.8825C108.336 14.5566 108.9 14.3106 109.531 14.1445C110.169 13.9785 110.837 13.8616 111.536 13.794C112.357 13.7079 113.019 13.6279 113.521 13.5541C114.024 13.4742 114.389 13.3573 114.616 13.2036C114.842 13.0498 114.956 12.8223 114.956 12.5209V12.4656C114.956 11.8813 114.772 11.4293 114.404 11.1095C114.042 10.7897 113.528 10.6298 112.859 10.6298C112.155 10.6298 111.594 10.7866 111.177 11.1003C110.76 11.4078 110.484 11.7952 110.35 12.2626L106.727 11.9674C106.911 11.1064 107.273 10.3623 107.812 9.73499C108.351 9.10154 109.047 8.61569 109.899 8.27744C110.757 7.93305 111.75 7.76085 112.878 7.76085C113.662 7.76085 114.413 7.8531 115.13 8.03759C115.854 8.2221 116.494 8.50807 117.052 8.89552C117.616 9.28297 118.06 9.78112 118.385 10.39C118.71 10.9927 118.872 11.7153 118.872 12.5578V22.1149H115.158V20.15H115.048C114.821 20.5928 114.517 20.9833 114.137 21.3216C113.757 21.6537 113.301 21.9151 112.768 22.1057C112.234 22.2902 111.618 22.3825 110.92 22.3825ZM112.041 19.6703C112.617 19.6703 113.126 19.5565 113.567 19.329C114.009 19.0953 114.355 18.7816 114.606 18.388C114.858 17.9944 114.983 17.5486 114.983 17.0504V15.5467C114.861 15.6267 114.692 15.7005 114.478 15.7681C114.269 15.8296 114.033 15.8881 113.77 15.9434C113.506 15.9926 113.243 16.0387 112.979 16.0818C112.715 16.1187 112.476 16.1525 112.262 16.1833C111.802 16.2509 111.401 16.3585 111.057 16.5061C110.714 16.6537 110.448 16.8536 110.258 17.1058C110.068 17.3518 109.973 17.6593 109.973 18.0283C109.973 18.5633 110.166 18.9723 110.552 19.2552C110.944 19.5319 111.441 19.6703 112.041 19.6703Z" fill="#B83280"/>
<path d="M123.823 27.4285C123.327 27.4285 122.861 27.3886 122.426 27.3086C121.997 27.2348 121.641 27.1395 121.359 27.0226L122.242 24.0891C122.702 24.2305 123.115 24.3074 123.483 24.3197C123.857 24.332 124.179 24.2459 124.449 24.0614C124.724 23.8769 124.948 23.5633 125.12 23.1205L125.35 22.5208L120.284 7.94534H124.403L127.326 18.3511H127.473L130.425 7.94534H134.571L129.082 23.6463C128.819 24.4089 128.46 25.0731 128.007 25.6389C127.559 26.2108 126.992 26.6506 126.306 26.9581C125.619 27.2717 124.792 27.4285 123.823 27.4285Z" fill="#B83280"/>
</svg>
